<svg id="Layer_1" data-name="Layer 1" xmlns="http://www.w3.org/2000/svg" viewBox="0 0 1920 236.21"><defs><style>.cls-1{fill:#fff;}.cls-2{fill:#4c45fa;}</style></defs><rect class="cls-1" width="1920" height="236.21"/><rect class="cls-2" x="312.48" width="77.52" height="236.21"/><polygon class="cls-2" points="0 138.29 64.38 236.21 144.01 236.21 0 17.16 0 138.29"/><polygon class="cls-2" points="909.83 59.28 909.83 0 472.07 0 472.07 236.21 549.59 236.21 549.59 59.28 909.83 59.28"/><polygon class="cls-2" points="1406.86 0 1238.14 236.21 1320.4 236.21 1502.62 0 1406.86 0"/><polygon class="cls-2" points="1069.42 0 973.66 0 1155.88 236.21 1238.14 236.21 1069.42 0"/><polygon class="cls-2" points="1830.93 59.28 1920 59.28 1920 0 1543.65 0 1543.65 59.28 1753.41 59.28 1753.41 236.21 1830.93 236.21 1830.93 59.28"/></svg>